<?xml version="1.0" encoding="utf-8"?>
<!-- Generator: Adobe Illustrator 21.1.0, SVG Export Plug-In . SVG Version: 6.00 Build 0)  -->
<svg version="1.1" id="Layer_1" xmlns="http://www.w3.org/2000/svg" xmlns:xlink="http://www.w3.org/1999/xlink" x="0px" y="0px"
	 width="52.6px" height="112.6px" viewBox="0 0 52.6 112.6" style="enable-background:new 0 0 52.6 112.6;" xml:space="preserve">
<g>
	<path d="M51.9,107.6c1.1,1.3,1,3.1-0.3,4.2c-0.6,0.5-1.3,0.8-2,0.8c-0.8,0-1.7-0.3-2.3-1L0.8,58.3l-0.1-0.1
		c-0.2-0.3-0.4-0.5-0.5-0.8c0-0.1-0.1-0.2-0.1-0.3c0-0.1-0.1-0.2-0.1-0.3c0-0.1,0-0.2-0.1-0.3c0-0.1,0-0.2,0-0.3v0
		c0-0.1,0-0.2,0-0.3c0-0.1,0-0.2,0.1-0.3c0-0.1,0-0.2,0.1-0.3c0-0.1,0.1-0.2,0.1-0.3c0.1-0.3,0.3-0.6,0.5-0.8L47.3,1
		c1.1-1.2,3-1.4,4.2-0.3c1.3,1.1,1.4,3,0.3,4.2L7,56.3L51.9,107.6z"/>
</g>
</svg>
