<?xml version="1.0" encoding="utf-8"?>
<!-- Generator: Adobe Illustrator 21.1.0, SVG Export Plug-In . SVG Version: 6.00 Build 0)  -->
<svg version="1.1" id="Layer_1" xmlns="http://www.w3.org/2000/svg" xmlns:xlink="http://www.w3.org/1999/xlink" x="0px" y="0px"
	 width="263.1px" height="24.1px" viewBox="0 0 263.1 24.1" style="enable-background:new 0 0 263.1 24.1;" xml:space="preserve">
<style type="text/css">
	.st0{fill:#010202;}
	.st1{fill:#5699D3;}
</style>
<g>
	<path class="st0" d="M15.5,4.3c1.5,1.3,2.2,3.1,2.2,5.5c0,2.5-0.8,4.4-2.3,5.8c-1.5,1.4-3.6,2.1-6.3,2.1H4.8v6.1H0V2.4h9.1
		C11.9,2.4,14,3,15.5,4.3z M12,12.7c0.7-0.6,1.1-1.5,1.1-2.7c0-1.2-0.4-2.1-1.1-2.7c-0.7-0.6-1.8-0.9-3.1-0.9h-4v7.3h4
		C10.2,13.7,11.3,13.3,12,12.7z"/>
	<path class="st0" d="M34.5,8.9c1.1,1.1,1.6,2.7,1.6,4.6v10.4h-4.7v-9c0-1-0.3-1.9-0.9-2.5c-0.6-0.6-1.4-0.9-2.4-0.9
		c-1.2,0-2.1,0.4-2.8,1.2c-0.7,0.8-1,1.8-1,3v8.1h-4.7V1.1h4.7v9.2c1.1-2,3-3.1,5.7-3.1C31.9,7.2,33.4,7.7,34.5,8.9z"/>
	<path class="st0" d="M48.6,23.9v-1.9c-0.6,0.7-1.3,1.2-2.1,1.6c-0.9,0.4-1.9,0.6-3,0.6c-1.7,0-3.1-0.5-4.1-1.4
		c-1-1-1.5-2.2-1.5-3.7c0-1.6,0.5-2.8,1.6-3.6c1.1-0.9,2.6-1.3,4.7-1.3h4.5v-0.3c0-0.9-0.3-1.6-0.9-2c-0.6-0.5-1.4-0.7-2.6-0.7
		c-1.5,0-3.2,0.5-4.9,1.4l-1.5-3.3c1.3-0.7,2.5-1.1,3.7-1.4c1.1-0.3,2.4-0.5,3.8-0.5c2.2,0,3.9,0.5,5.1,1.6c1.2,1,1.8,2.5,1.9,4.4
		l0,10.8H48.6z M47.2,20c0.7-0.5,1.1-1.1,1.3-1.8v-1.5h-3.7c-0.9,0-1.6,0.1-2,0.4c-0.4,0.3-0.7,0.8-0.7,1.4c0,0.6,0.2,1.1,0.7,1.5
		c0.5,0.4,1.1,0.6,1.9,0.6C45.7,20.7,46.5,20.5,47.2,20z"/>
	<path class="st0" d="M63,8c0.9-0.5,2-0.8,3.2-0.8v4.5c-0.2,0-0.4,0-0.7,0c-1.5,0-2.6,0.4-3.5,1.2c-0.8,0.8-1.3,1.8-1.3,3.1v8H56
		V7.3h4.7v3C61.3,9.3,62.1,8.5,63,8z"/>
	<path class="st0" d="M93.8,8.9c1.1,1.1,1.6,2.7,1.6,4.6v10.4h-4.7v-9c0-1.1-0.3-1.9-0.9-2.5c-0.6-0.6-1.4-0.9-2.3-0.9
		c-1.1,0-2,0.4-2.7,1.2c-0.7,0.8-1,1.8-1,3v8.2h-4.7v-9c0-1-0.3-1.9-0.8-2.5c-0.6-0.6-1.3-0.9-2.3-0.9c-1.1,0-2,0.4-2.7,1.2
		c-0.7,0.8-1,1.8-1,3v8.2h-4.7V7.3h4.7v2.9c1.1-2,3-3,5.6-3c1.4,0,2.6,0.3,3.5,1c1,0.7,1.6,1.6,2.1,2.8c0.5-1.2,1.3-2.2,2.3-2.8
		c1-0.6,2.2-1,3.6-1C91.3,7.2,92.7,7.7,93.8,8.9z"/>
	<path class="st0" d="M107.8,23.9v-1.9c-0.6,0.7-1.3,1.2-2.1,1.6c-0.9,0.4-1.9,0.6-3,0.6c-1.7,0-3.1-0.5-4.1-1.4
		c-1-1-1.5-2.2-1.5-3.7c0-1.6,0.5-2.8,1.6-3.6c1.1-0.9,2.6-1.3,4.7-1.3h4.5v-0.3c0-0.9-0.3-1.6-0.9-2c-0.6-0.5-1.4-0.7-2.6-0.7
		c-1.5,0-3.2,0.5-4.9,1.4L98,9.1c1.3-0.7,2.5-1.1,3.7-1.4c1.1-0.3,2.4-0.5,3.8-0.5c2.2,0,3.9,0.5,5.1,1.6c1.2,1,1.8,2.5,1.9,4.4
		l0,10.8H107.8z M106.5,20c0.7-0.5,1.1-1.1,1.3-1.8v-1.5h-3.7c-0.9,0-1.6,0.1-2,0.4c-0.4,0.3-0.7,0.8-0.7,1.4c0,0.6,0.2,1.1,0.7,1.5
		c0.5,0.4,1.1,0.6,1.9,0.6C104.9,20.7,105.8,20.5,106.5,20z"/>
	<path class="st0" d="M122.7,11.2c-1.2,0-2.2,0.4-2.9,1.2c-0.7,0.8-1.1,1.9-1.1,3.2c0,1.3,0.4,2.4,1.1,3.2c0.7,0.8,1.7,1.2,2.8,1.2
		c1.7,0,3-0.6,3.8-1.9l3.3,2.2c-0.7,1.2-1.7,2.1-2.9,2.7c-1.3,0.6-2.7,1-4.4,1c-1.7,0-3.1-0.3-4.4-1c-1.3-0.7-2.3-1.7-3-2.9
		c-0.7-1.3-1.1-2.7-1.1-4.4c0-1.7,0.4-3.2,1.1-4.4c0.7-1.3,1.7-2.3,3-3c1.3-0.7,2.8-1.1,4.4-1.1c1.6,0,3,0.3,4.2,0.9
		c1.2,0.6,2.2,1.5,2.9,2.6l-3.2,2.3C125.4,11.8,124.2,11.2,122.7,11.2z"/>
	<path class="st0" d="M147.1,7.3v16.5h-4.7v-2.9c-1.1,2.1-3,3.1-5.5,3.1c-1.8,0-3.3-0.6-4.3-1.7c-1.1-1.1-1.6-2.7-1.6-4.6V7.3h4.7v9
		c0,1,0.3,1.9,0.8,2.5c0.6,0.6,1.3,0.9,2.3,0.9c1.1,0,2-0.4,2.7-1.2c0.7-0.8,1-1.8,1-3V7.3H147.1z"/>
	<path class="st0" d="M160.6,22.9c-0.6,0.4-1.3,0.6-2,0.8s-1.5,0.3-2.3,0.3c-1.5,0-2.8-0.4-3.7-1.3s-1.4-2.1-1.4-3.8v-7.6h-2.3V8.1
		h2.3V3.5h4.7v4.5h4.5v3.3h-4.5v6.8c0,1.3,0.5,1.9,1.5,1.9c0.7,0,1.5-0.2,2.3-0.6L160.6,22.9z"/>
	<path class="st0" d="M166.4,0.7c0.5,0.5,0.7,1.1,0.7,1.9c0,0.8-0.2,1.4-0.7,1.9c-0.5,0.5-1.1,0.7-1.9,0.7c-0.7,0-1.3-0.3-1.8-0.8
		C162.3,4,162,3.4,162,2.6c0-0.8,0.2-1.4,0.7-1.9c0.5-0.5,1.1-0.7,1.8-0.7C165.3,0,166,0.2,166.4,0.7z M162.3,7.3h4.7v16.5h-4.7V7.3
		z"/>
	<path class="st0" d="M177.6,11.2c-1.2,0-2.2,0.4-2.9,1.2c-0.7,0.8-1.1,1.9-1.1,3.2c0,1.3,0.4,2.4,1.1,3.2c0.7,0.8,1.7,1.2,2.8,1.2
		c1.7,0,3-0.6,3.8-1.9l3.3,2.2c-0.7,1.2-1.7,2.1-2.9,2.7c-1.3,0.6-2.7,1-4.4,1c-1.7,0-3.1-0.3-4.4-1c-1.3-0.7-2.3-1.7-3-2.9
		c-0.7-1.3-1.1-2.7-1.1-4.4c0-1.7,0.4-3.2,1.1-4.4c0.7-1.3,1.7-2.3,3-3c1.3-0.7,2.8-1.1,4.4-1.1c1.6,0,3,0.3,4.2,0.9
		c1.2,0.6,2.2,1.5,2.9,2.6l-3.2,2.3C180.4,11.8,179.1,11.2,177.6,11.2z"/>
	<path class="st0" d="M195.5,23.9v-1.9c-0.6,0.7-1.3,1.2-2.1,1.6c-0.9,0.4-1.9,0.6-3,0.6c-1.7,0-3.1-0.5-4.1-1.4
		c-1-1-1.5-2.2-1.5-3.7c0-1.6,0.5-2.8,1.6-3.6c1.1-0.9,2.6-1.3,4.7-1.3h4.5v-0.3c0-0.9-0.3-1.6-0.9-2c-0.6-0.5-1.4-0.7-2.6-0.7
		c-1.5,0-3.2,0.5-4.9,1.4l-1.5-3.3c1.3-0.7,2.5-1.1,3.7-1.4c1.1-0.3,2.4-0.5,3.8-0.5c2.2,0,3.9,0.5,5.1,1.6c1.2,1,1.8,2.5,1.9,4.4
		l0,10.8H195.5z M194.2,20c0.7-0.5,1.1-1.1,1.3-1.8v-1.5h-3.7c-0.9,0-1.6,0.1-2,0.4c-0.4,0.3-0.7,0.8-0.7,1.4c0,0.6,0.2,1.1,0.7,1.5
		c0.5,0.4,1.1,0.6,1.9,0.6C192.6,20.7,193.5,20.5,194.2,20z"/>
	<path class="st0" d="M203.1,1.1h4.7v22.8h-4.7V1.1z"/>
	<path class="st1" d="M219.7,2.4h2.1v21.5h-2.1V2.4z"/>
	<path class="st1" d="M239.9,9.4c1.1,1.1,1.6,2.6,1.6,4.6v9.9h-2.1v-9.4c0-1.5-0.4-2.7-1.3-3.6c-0.8-0.9-2-1.3-3.5-1.3
		c-1.7,0-3,0.5-4,1.5c-1,1-1.6,2.4-1.7,4.1v8.7h-2.1V7.8h2.1v3.7c0.6-1.2,1.4-2.2,2.4-2.8c1.1-0.6,2.4-1,3.9-1
		C237.3,7.7,238.8,8.3,239.9,9.4z"/>
	<path class="st1" d="M252.2,9.5c-1.1,0-2.2,0.3-3.1,0.8c-0.9,0.5-1.6,1.3-2.1,2.2c-0.5,1-0.8,2-0.8,3.3c0,1.2,0.3,2.3,0.8,3.3
		c0.5,1,1.2,1.7,2.1,2.2c0.9,0.5,2,0.8,3.1,0.8c1,0,2-0.2,2.9-0.6c0.9-0.4,1.6-0.9,2.2-1.6l1.2,1.2c-0.7,0.9-1.6,1.5-2.7,2
		c-1.1,0.5-2.3,0.7-3.6,0.7c-1.5,0-2.9-0.3-4.1-1c-1.2-0.7-2.2-1.6-2.8-2.9s-1-2.6-1-4.2s0.3-3,1-4.2s1.6-2.2,2.8-2.9
		c1.2-0.7,2.6-1,4.1-1c1.2,0,2.4,0.2,3.4,0.6c1,0.4,1.9,1,2.7,1.7l-1.2,1.4C255.7,10.1,254.1,9.5,252.2,9.5z"/>
	<path class="st1" d="M262.7,21.7c0.3,0.3,0.4,0.6,0.4,1c0,0.4-0.1,0.7-0.4,1c-0.3,0.3-0.6,0.4-1,0.4c-0.4,0-0.7-0.1-1-0.4
		c-0.3-0.3-0.4-0.6-0.4-1c0-0.4,0.1-0.7,0.4-1c0.3-0.3,0.6-0.4,1-0.4C262.1,21.3,262.5,21.4,262.7,21.7z"/>
</g>
</svg>
