<?xml version="1.0" encoding="utf-8"?>
<!-- Generator: Adobe Illustrator 22.1.0, SVG Export Plug-In . SVG Version: 6.00 Build 0)  -->
<svg version="1.1" id="Layer_1" xmlns="http://www.w3.org/2000/svg" xmlns:xlink="http://www.w3.org/1999/xlink" x="0px" y="0px"
	 width="45.8px" height="62.9px" viewBox="0 0 45.8 62.9" style="enable-background:new 0 0 45.8 62.9;" xml:space="preserve">
<style type="text/css">
	.st0{fill:#212121;}
</style>
<path class="st0" d="M22.9,0C10.3,0,0,10.3,0,22.9c0,10.7,16.3,32.6,21.4,39.2c0.8,1,2.3,1,3,0c5.1-6.6,21.4-28.6,21.4-39.2
	C45.8,10.3,35.6,0,22.9,0z M22.9,40c-9.8,0-17.8-8-17.8-17.8c0-9.8,8-17.8,17.8-17.8c9.8,0,17.8,8,17.8,17.8
	C40.7,32,32.7,40,22.9,40z"/>
</svg>
