<?xml version="1.0" encoding="utf-8"?>
<!-- Generator: Adobe Illustrator 21.1.0, SVG Export Plug-In . SVG Version: 6.00 Build 0)  -->
<svg version="1.1" id="Layer_1" xmlns="http://www.w3.org/2000/svg" xmlns:xlink="http://www.w3.org/1999/xlink" x="0px" y="0px"
	 width="62.4px" height="62.9px" viewBox="0 0 62.4 62.9" style="enable-background:new 0 0 62.4 62.9;" xml:space="preserve">
<style type="text/css">
	.st0{fill:#212121;}
</style>
<g>
	<path class="st0" d="M48.6,43.4c3.6-4.7,5.5-10.4,5.5-16.4c0-7.2-2.8-14-7.9-19.1C35.6-2.6,18.5-2.6,7.9,7.9C2.8,13,0,19.8,0,27
		c0,7.2,2.8,14,7.9,19.1c5.1,5.1,11.9,7.9,19.1,7.9c5.8,0,11.2-1.8,15.8-5.1l12.8,12.8c1.6,1.6,4.1,1.6,5.7,0l0,0
		c1.6-1.6,1.6-4.1,0-5.7L48.6,43.4z M13.6,40.5C10,36.9,8,32.1,8,27c0-5.1,2-9.9,5.6-13.5C17.3,9.9,22.2,8,27,8
		c4.9,0,9.8,1.9,13.5,5.6c3.6,3.6,5.6,8.4,5.6,13.5c0,5.1-2,9.9-5.6,13.5c-3.6,3.6-8.4,5.6-13.5,5.6S17.2,44.1,13.6,40.5z"/>
</g>
</svg>
